<?xml version='1.0' encoding='utf-8'?>
<!DOCTYPE svg>
<!-- Generator: Adobe Illustrator 14.0.0, SVG Export Plug-In . SVG Version: 6.00 Build 43363)  -->
<svg xmlns="http://www.w3.org/2000/svg" baseProfile="basic" height="1.41732in" version="1.1" viewBox="0 0 226.772 102.047" width="3.14961in" x="0px" xml:space="preserve"  xmlns:xml="http://www.w3.org/XML/1998/namespace" y="0px">
    <desc>
        <referenceFile>lcd-GDM1602K.svg</referenceFile>
    </desc>
    <g gorn="0.0" id="breadboard" >
        <g gorn="0.0.0" id="svg" >
            <g gorn="0.0.0.0" id="breadboard" >
                <path d="M0,0v102.047h226.772V0H0z M113.029,2.081c0.766,0,1.387,0.621,1.387,1.387s-0.621,1.387-1.387,1.387s-1.387-0.621-1.387-1.387S112.264,2.081,113.029,2.081z M41.03,2.081c0.766,0,1.387,0.621,1.387,1.387s-0.621,1.387-1.387,1.387s-1.387-0.621-1.387-1.387S40.265,2.081,41.03,2.081z M33.83,2.081c0.766,0,1.387,0.621,1.387,1.387s-0.621,1.387-1.387,1.387s-1.387-0.621-1.387-1.387S33.064,2.081,33.83,2.081z M6.542,3.736c1.576,0,2.854,1.277,2.854,2.854S8.118,9.443,6.542,9.443S3.688,8.166,3.688,6.59S4.966,3.736,6.542,3.736z M6.545,98.339c-1.576,0-2.854-1.278-2.854-2.854c0-1.576,1.278-2.854,2.854-2.854s2.854,1.277,2.854,2.854C9.398,97.061,8.121,98.339,6.545,98.339z M19.43,4.854c-0.766,0-1.387-0.621-1.387-1.387s0.621-1.387,1.387-1.387s1.387,0.621,1.387,1.387S20.195,4.854,19.43,4.854z M25.243,3.468c0-0.766,0.621-1.387,1.387-1.387s1.387,0.621,1.387,1.387s-0.621,1.387-1.387,1.387S25.243,4.233,25.243,3.468z M43.219,89.84H26.886v-4.816h16.333V89.84z M43.219,17.023H26.886v-4.816h16.333V17.023z M48.229,4.854c-0.766,0-1.387-0.621-1.387-1.387s0.621-1.387,1.387-1.387s1.387,0.621,1.387,1.387S48.995,4.854,48.229,4.854z M55.43,4.854c-0.766,0-1.387-0.621-1.387-1.387s0.621-1.387,1.387-1.387s1.387,0.621,1.387,1.387S56.195,4.854,55.43,4.854z M62.63,4.854c-0.766,0-1.387-0.621-1.387-1.387s0.621-1.387,1.387-1.387s1.387,0.621,1.387,1.387S63.396,4.854,62.63,4.854z M69.83,4.854c-0.766,0-1.387-0.621-1.387-1.387s0.621-1.387,1.387-1.387s1.387,0.621,1.387,1.387S70.596,4.854,69.83,4.854z M77.029,4.854c-0.766,0-1.387-0.621-1.387-1.387s0.621-1.387,1.387-1.387s1.387,0.621,1.387,1.387S77.795,4.854,77.029,4.854z M84.229,4.854c-0.766,0-1.387-0.621-1.387-1.387s0.621-1.387,1.387-1.387s1.387,0.621,1.387,1.387S84.995,4.854,84.229,4.854z M91.43,4.854c-0.766,0-1.387-0.621-1.387-1.387s0.621-1.387,1.387-1.387s1.387,0.621,1.387,1.387S92.195,4.854,91.43,4.854z M98.63,4.854c-0.766,0-1.387-0.621-1.387-1.387s0.621-1.387,1.387-1.387s1.387,0.621,1.387,1.387S99.396,4.854,98.63,4.854z M104.442,3.468c0-0.766,0.621-1.387,1.387-1.387s1.387,0.621,1.387,1.387s-0.621,1.387-1.387,1.387S104.442,4.233,104.442,3.468z M121.553,89.84h-16.334v-4.816h16.334V89.84z M121.553,17.023h-16.334v-4.816h16.334V17.023z M120.229,4.854c-0.766,0-1.387-0.621-1.387-1.387s0.621-1.387,1.387-1.387s1.387,0.621,1.387,1.387S120.995,4.854,120.229,4.854z M127.43,4.854c-0.766,0-1.387-0.621-1.387-1.387s0.621-1.387,1.387-1.387s1.387,0.621,1.387,1.387S128.196,4.854,127.43,4.854z M199.885,89.84h-16.332v-4.816h16.332V89.84z M199.885,17.023h-16.332v-4.816h16.332V17.023z M220.208,3.731c1.576,0,2.854,1.277,2.854,2.854s-1.277,2.854-2.854,2.854s-2.855-1.277-2.855-2.854S218.631,3.731,220.208,3.731z M220.208,98.34c-1.576,0-2.854-1.277-2.854-2.854c0-1.575,1.277-2.854,2.854-2.854s2.855,1.278,2.855,2.854C223.063,97.062,221.784,98.34,220.208,98.34z" fill="#1F7A34" />
                <g >
                    <path d="M1.581,6.59c0,2.737,2.223,4.961,4.96,4.961c2.742,0,4.961-2.224,4.961-4.961c0-2.741-2.219-4.96-4.961-4.96C3.804,1.63,1.581,3.849,1.581,6.59z M3.688,6.59c0-1.576,1.278-2.854,2.854-2.854c1.576,0,2.854,1.277,2.854,2.854S8.117,9.443,6.541,9.443C4.966,9.443,3.688,8.166,3.688,6.59z" fill="#9A916C" />
                </g>
                <g >
                    <g >
                        <path d="M225.168,95.486c0-2.737-2.223-4.961-4.961-4.961c-2.742,0-4.961,2.224-4.961,4.961c0,2.741,2.219,4.96,4.961,4.96C222.946,100.446,225.168,98.228,225.168,95.486z M223.063,95.486c0,1.576-1.279,2.854-2.855,2.854s-2.854-1.277-2.854-2.854c0-1.575,1.277-2.854,2.854-2.854S223.063,93.911,223.063,95.486z" fill="#9A916C" />
                    </g>
                </g>
                <g >
                    <g >
                        <path d="M1.584,95.485c0,2.737,2.223,4.961,4.96,4.961c2.742,0,4.961-2.224,4.961-4.961c0-2.741-2.219-4.96-4.961-4.96C3.807,90.525,1.584,92.744,1.584,95.485z M3.69,95.485c0-1.576,1.278-2.854,2.854-2.854c1.576,0,2.854,1.277,2.854,2.854c0,1.575-1.278,2.854-2.854,2.854C4.969,98.339,3.69,97.061,3.69,95.485z" fill="#9A916C" />
                    </g>
                </g>
                <path d="M217.563,65.272c-0.734,0-1.336-0.602-1.336-1.337V38.113c0-0.735,0.602-1.337,1.336-1.337h0.057V16.726v-0.698h-0.699l-2.049-2.049v-0.713h-0.713H12.611h-0.713v0.713L9.85,16.027H9.151v0.698v20.051h0.057c0.735,0,1.337,0.602,1.337,1.337v25.822c0,0.735-0.602,1.337-1.337,1.337H9.151v20.049v0.698H9.85l2.049,2.049v0.713h0.713h201.547h0.713v-0.713l2.049-2.049h0.699v-0.698V65.272H217.563z" fill="#303030" />
                <g >
                    <path d="M208.663,71.382c0,2.206-1.805,4.011-4.012,4.011H22.12c-2.206,0-4.011-1.805-4.011-4.011V30.665c0-2.206,1.805-4.011,4.011-4.011h182.531c2.207,0,4.012,1.805,4.012,4.011V71.382z" fill="#87AD34" />
                    <g opacity="0.2" >
                        <path d="M208.655,30.646v40.755c0-0.006,0.002-0.012,0.002-0.019V30.665C208.657,30.658,208.655,30.652,208.655,30.646z M22.12,26.654c-2.205,0-4.011,1.806-4.011,4.011v40.717c0,2.205,1.806,4.011,4.011,4.011h2.326c-2.206,0-4.011-1.806-4.011-4.011V32.003c0-2.206,1.805-4.011,4.011-4.011h183.165c-0.735-0.814-1.787-1.338-2.964-1.338H22.12z" fill="#22420D" />
                    </g>
                </g>
                <g >
                    <path d="M210.358,18.618c0-0.735-0.602-1.336-1.336-1.336H17.75c-0.735,0-1.336,0.602-1.336,1.336v0.737c0,0.735,0.602,1.336,1.336,1.336h191.271c0.734,0,1.336-0.602,1.336-1.336V18.618z" fill="#1A1A1A" />
                    <path d="M209.69,19.812c0-0.484-0.432-0.88-0.957-0.88H18.117c-0.526,0-0.957,0.396-0.957,0.88s0.431,0.88,0.957,0.88h190.616C209.258,20.691,209.69,20.295,209.69,19.812z" fill="#424242" />
                </g>
                <g >
                    <path d="M210.358,82.056c0-0.734-0.602-1.336-1.336-1.336H17.75c-0.735,0-1.336,0.602-1.336,1.336v0.738c0,0.734,0.602,1.336,1.336,1.336h191.271c0.734,0,1.336-0.602,1.336-1.336V82.056z" fill="#1A1A1A" />
                    <path d="M209.69,83.251c0-0.484-0.432-0.88-0.957-0.88H18.117c-0.526,0-0.957,0.396-0.957,0.88c0,0.483,0.431,0.879,0.957,0.879h190.616C209.258,84.13,209.69,83.734,209.69,83.251z" fill="#424242" />
                </g>
                <g >
                    <line fill="none" stroke="#F2F2F2" stroke-linecap="round" stroke-opacity="0.2" stroke-width="0.2358" x1="9.937" x2="12.05"  y1="16.173" y2="14.06"/>
                    <line fill="none" stroke="#F2F2F2" stroke-linecap="round" stroke-opacity="0.2" stroke-width="0.2358" x1="12.072" x2="9.959"  y1="87.977" y2="85.863"/>
                </g>
                <g >
                    <line fill="none" stroke="#F2F2F2" stroke-linecap="round" stroke-opacity="0.2" stroke-width="0.2358" x1="216.823" x2="214.709"  y1="16.173" y2="14.06"/>
                    <line fill="none" stroke="#F2F2F2" stroke-linecap="round" stroke-opacity="0.2" stroke-width="0.2358" x1="214.688" x2="216.801"  y1="87.977" y2="85.863"/>
                </g>
                <path d="M208.657,71.382c0,2.205-1.805,4.011-4.01,4.011H22.12c-2.205,0-4.011-1.806-4.011-4.011V30.665c0-2.205,1.806-4.011,4.011-4.011h182.527c2.205,0,4.01,1.806,4.01,4.011V71.382z" fill="none" stroke="#1A1A1A" stroke-opacity="0.4" stroke-width="1.415" />
                <g >
                    <path d="M215.247,6.585c0,2.737,2.223,4.961,4.961,4.961c2.742,0,4.961-2.224,4.961-4.961c0-2.741-2.219-4.96-4.961-4.96C217.469,1.625,215.247,3.844,215.247,6.585z M217.352,6.585c0-1.576,1.279-2.854,2.855-2.854s2.854,1.277,2.854,2.854s-1.277,2.854-2.854,2.854S217.352,8.161,217.352,6.585z" fill="#9A916C" />
                </g>
                <g >
                    <path d="M17.02,0v4.75c0,1.33,1.078,2.41,2.41,2.41c1.33,0,2.41-1.08,2.41-2.41V0H17.02z M19.43,4.854c-0.766,0-1.387-0.621-1.387-1.387s0.621-1.387,1.387-1.387s1.387,0.621,1.387,1.387S20.195,4.854,19.43,4.854z" fill="#9A916C" />
                </g>
                <g >
                    <path d="M24.22,0v4.75c0,1.33,1.078,2.41,2.41,2.41c1.33,0,2.41-1.08,2.41-2.41V0H24.22z M26.63,4.854c-0.766,0-1.387-0.621-1.387-1.387s0.621-1.387,1.387-1.387s1.387,0.621,1.387,1.387S27.396,4.854,26.63,4.854z" fill="#9A916C" />
                </g>
                <g >
                    <path d="M31.42,0v4.75c0,1.33,1.078,2.41,2.41,2.41c1.33,0,2.41-1.08,2.41-2.41V0H31.42z M33.83,4.854c-0.766,0-1.387-0.621-1.387-1.387s0.621-1.387,1.387-1.387s1.387,0.621,1.387,1.387S34.596,4.854,33.83,4.854z" fill="#9A916C" />
                </g>
                <g >
                    <path d="M38.62,0v4.75c0,1.33,1.078,2.41,2.41,2.41c1.33,0,2.41-1.08,2.41-2.41V0H38.62z M41.03,4.854c-0.766,0-1.387-0.621-1.387-1.387s0.621-1.387,1.387-1.387s1.387,0.621,1.387,1.387S41.796,4.854,41.03,4.854z" fill="#9A916C" />
                </g>
                <g >
                    <path d="M45.819,0v4.75c0,1.33,1.078,2.41,2.41,2.41c1.33,0,2.41-1.08,2.41-2.41V0H45.819z M48.229,4.854c-0.766,0-1.387-0.621-1.387-1.387s0.621-1.387,1.387-1.387s1.387,0.621,1.387,1.387S48.995,4.854,48.229,4.854z" fill="#9A916C" />
                </g>
                <g >
                    <path d="M53.02,0v4.75c0,1.33,1.078,2.41,2.41,2.41c1.33,0,2.41-1.08,2.41-2.41V0H53.02z M55.43,4.854c-0.766,0-1.387-0.621-1.387-1.387s0.621-1.387,1.387-1.387s1.387,0.621,1.387,1.387S56.195,4.854,55.43,4.854z" fill="#9A916C" />
                </g>
                <g >
                    <path d="M60.22,0v4.75c0,1.33,1.078,2.41,2.41,2.41c1.33,0,2.41-1.08,2.41-2.41V0H60.22z M62.63,4.854c-0.766,0-1.387-0.621-1.387-1.387s0.621-1.387,1.387-1.387s1.387,0.621,1.387,1.387S63.396,4.854,62.63,4.854z" fill="#9A916C" />
                </g>
                <g >
                    <path d="M67.42,0v4.75c0,1.33,1.078,2.41,2.41,2.41c1.33,0,2.41-1.08,2.41-2.41V0H67.42z M69.83,4.854c-0.766,0-1.387-0.621-1.387-1.387s0.621-1.387,1.387-1.387s1.387,0.621,1.387,1.387S70.596,4.854,69.83,4.854z" fill="#9A916C" />
                </g>
                <g >
                    <path d="M74.619,0v4.75c0,1.33,1.078,2.41,2.41,2.41c1.33,0,2.41-1.08,2.41-2.41V0H74.619z M77.029,4.854c-0.766,0-1.387-0.621-1.387-1.387s0.621-1.387,1.387-1.387s1.387,0.621,1.387,1.387S77.795,4.854,77.029,4.854z" fill="#9A916C" />
                </g>
                <g >
                    <path d="M81.819,0v4.75c0,1.33,1.078,2.41,2.41,2.41c1.33,0,2.41-1.08,2.41-2.41V0H81.819z M84.229,4.854c-0.766,0-1.387-0.621-1.387-1.387s0.621-1.387,1.387-1.387s1.387,0.621,1.387,1.387S84.995,4.854,84.229,4.854z" fill="#9A916C" />
                </g>
                <g >
                    <path d="M89.02,0v4.75c0,1.33,1.078,2.41,2.41,2.41c1.33,0,2.41-1.08,2.41-2.41V0H89.02z M91.43,4.854c-0.766,0-1.387-0.621-1.387-1.387s0.621-1.387,1.387-1.387s1.387,0.621,1.387,1.387S92.195,4.854,91.43,4.854z" fill="#9A916C" />
                </g>
                <g >
                    <path d="M96.22,0v4.75c0,1.33,1.078,2.41,2.41,2.41c1.33,0,2.41-1.08,2.41-2.41V0H96.22z M98.63,4.854c-0.766,0-1.387-0.621-1.387-1.387s0.621-1.387,1.387-1.387s1.387,0.621,1.387,1.387S99.396,4.854,98.63,4.854z" fill="#9A916C" />
                </g>
                <g >
                    <path d="M103.419,0v4.75c0,1.33,1.078,2.41,2.41,2.41c1.33,0,2.41-1.08,2.41-2.41V0H103.419z M105.829,4.854c-0.766,0-1.387-0.621-1.387-1.387s0.621-1.387,1.387-1.387s1.387,0.621,1.387,1.387S106.595,4.854,105.829,4.854z" fill="#9A916C" />
                </g>
                <g >
                    <path d="M110.619,0v4.75c0,1.33,1.078,2.41,2.41,2.41c1.33,0,2.411-1.08,2.411-2.41V0H110.619z M113.029,4.854c-0.766,0-1.387-0.621-1.387-1.387s0.621-1.387,1.387-1.387s1.387,0.621,1.387,1.387S113.795,4.854,113.029,4.854z" fill="#9A916C" />
                </g>
                <g >
                    <path d="M117.819,0v4.75c0,1.33,1.078,2.41,2.41,2.41c1.33,0,2.41-1.08,2.41-2.41V0H117.819z M120.229,4.854c-0.766,0-1.387-0.621-1.387-1.387s0.621-1.387,1.387-1.387s1.387,0.621,1.387,1.387S120.995,4.854,120.229,4.854z" fill="#9A916C" />
                </g>
                <g >
                    <path d="M125.02,0v4.75c0,1.33,1.078,2.41,2.41,2.41c1.33,0,2.41-1.08,2.41-2.41V0H125.02z M127.43,4.854c-0.766,0-1.387-0.621-1.387-1.387s0.621-1.387,1.387-1.387s1.387,0.621,1.387,1.387S128.196,4.854,127.43,4.854z" fill="#9A916C" />
                </g>
                <g id="lcd-pixels"></g>
                <g >
                    <path d="M9.454,65.223V86.02h0.268V65.168C9.639,65.203,9.544,65.205,9.454,65.223z" fill="#606060" />
                    <path d="M9.722,36.881V16.026H9.454v20.8C9.544,36.844,9.639,36.846,9.722,36.881z" fill="#606060" />
                </g>
                <rect fill="#606060" height="0.267" width="202.969" x="11.9"  y="13.572"/>
                <rect fill="#212121" height="0.304" width="202.969" x="11.9"  y="13.27"/>
                <g >
                    <path d="M9.208,36.776c0.087,0,0.164,0.034,0.247,0.05v-20.8H9.152v20.75H9.208z" fill="#212121" />
                    <path d="M9.208,65.272H9.152V86.02h0.303V65.222C9.372,65.238,9.295,65.272,9.208,65.272z" fill="#212121" />
                </g>
                <rect fill="#212121" height="0.303" width="202.969" x="11.9"  y="88.48"/>
                <rect fill="#606060" height="0.267" width="202.969" x="11.9"  y="88.215"/>
                <g >
                    <path d="M217.563,65.272c-0.089,0-0.166-0.034-0.25-0.051V86.02h0.305V65.272H217.563z" fill="#212121" />
                    <path d="M217.563,36.776h0.055v-20.75h-0.305v20.801C217.397,36.811,217.474,36.776,217.563,36.776z" fill="#212121" />
                </g>
                <g >
                    <path d="M217.049,65.168V86.02h0.266V65.222C217.226,65.205,217.131,65.203,217.049,65.168z" fill="#606060" />
                    <path d="M217.315,36.827v-20.8h-0.266v20.854C217.131,36.846,217.226,36.844,217.315,36.827z" fill="#606060" />
                </g>
            </g>
            <circle cx="19.43" cy="3.468" gorn="0.0.0.1" id="connector0pin" r="1.387" />
            <circle cx="26.63" cy="3.468" gorn="0.0.0.2" id="connector1pin" r="1.387" />
            <circle cx="33.83" cy="3.468" gorn="0.0.0.3" id="connector2pin" r="1.387" />
            <circle cx="41.03" cy="3.468" gorn="0.0.0.4" id="connector3pin" r="1.387" />
            <circle cx="48.229" cy="3.468" gorn="0.0.0.5" id="connector4pin" r="1.387" />
            <circle cx="55.43" cy="3.468" gorn="0.0.0.6" id="connector5pin" r="1.387" />
            <path d="M61.243,3.468c0-0.766,0.621-1.387,1.387-1.387s1.387,0.621,1.387,1.387s-0.621,1.387-1.387,1.387S61.243,4.233,61.243,3.468" gorn="0.0.0.7" id="connector6pin" />
            <circle cx="69.83" cy="3.468" gorn="0.0.0.8" id="connector7pin" r="1.387" />
            <circle cx="77.029" cy="3.468" gorn="0.0.0.9" id="connector8pin" r="1.387" />
            <circle cx="84.229" cy="3.468" gorn="0.0.0.10" id="connector9pin" r="1.387" />
            <circle cx="91.43" cy="3.468" gorn="0.0.0.11" id="connector10pin" r="1.387" />
            <circle cx="98.63" cy="3.468" gorn="0.0.0.12" id="connector11pin" r="1.387" />
            <circle cx="105.829" cy="3.468" gorn="0.0.0.13" id="connector12pin" r="1.387" />
            <circle cx="113.029" cy="3.468" gorn="0.0.0.14" id="connector13pin" r="1.387" />
            <circle cx="120.229" cy="3.468" gorn="0.0.0.15" id="connector14pin" r="1.387" />
            <circle cx="127.43" cy="3.468" gorn="0.0.0.16" id="connector15pin" r="1.387" />
        </g>
        <g gorn="0.0.1" id="Ebene_2" />
    </g>
  <script type="text/javascript"><![CDATA[
// ============================================================
//  修改下面兩行文字即可更新 LCD 顯示內容（最多各 16 個字元）
// ============================================================
var TEXT_ROW1 = "Hello!";
var TEXT_ROW2 = "";
// ============================================================

var FONT5X8 = {
  ' ':[0,0,0,0,0,0,0,0],
  '!':[4,4,4,4,4,0,4,0],
  '"':[10,10,10,0,0,0,0,0],
  '#':[10,10,31,10,31,10,10,0],
  '$':[4,15,20,14,5,30,4,0],
  '%':[24,25,2,4,8,19,3,0],
  '&':[12,18,20,8,21,18,13,0],
  '\'':[12,4,8,0,0,0,0,0],
  '(':[2,4,8,8,8,4,2,0],
  ')':[8,4,2,2,2,4,8,0],
  '*':[0,4,21,14,21,4,0,0],
  '+':[0,4,4,31,4,4,0,0],
  ',':[0,0,0,0,12,4,8,0],
  '-':[0,0,0,31,0,0,0,0],
  '.':[0,0,0,0,0,12,12,0],
  '/':[0,1,2,4,8,16,0,0],
  '0':[14,17,19,21,25,17,14,0],
  '1':[4,12,4,4,4,4,14,0],
  '2':[14,17,1,6,8,16,31,0],
  '3':[31,1,2,6,1,17,14,0],
  '4':[2,6,10,18,31,2,2,0],
  '5':[31,16,30,1,1,17,14,0],
  '6':[6,8,16,30,17,17,14,0],
  '7':[31,1,2,4,8,8,8,0],
  '8':[14,17,17,14,17,17,14,0],
  '9':[14,17,17,15,1,2,12,0],
  ':':[0,12,12,0,12,12,0,0],
  ';':[0,12,12,0,12,4,8,0],
  '<':[2,4,8,16,8,4,2,0],
  '=':[0,0,31,0,31,0,0,0],
  '>':[16,8,4,2,4,8,16,0],
  '?':[14,17,1,6,4,0,4,0],
  '@':[14,17,1,13,21,21,14,0],
  'A':[14,17,17,31,17,17,17,0],
  'B':[30,17,17,30,17,17,30,0],
  'C':[14,17,16,16,16,17,14,0],
  'D':[28,18,17,17,17,18,28,0],
  'E':[31,16,16,30,16,16,31,0],
  'F':[31,16,16,30,16,16,16,0],
  'G':[14,17,16,23,17,17,14,0],
  'H':[17,17,17,31,17,17,17,0],
  'I':[14,4,4,4,4,4,14,0],
  'J':[7,2,2,2,2,18,12,0],
  'K':[17,18,20,24,20,18,17,0],
  'L':[16,16,16,16,16,16,31,0],
  'M':[17,27,21,21,17,17,17,0],
  'N':[17,25,25,21,19,19,17,0],
  'O':[14,17,17,17,17,17,14,0],
  'P':[30,17,17,30,16,16,16,0],
  'Q':[14,17,17,17,21,18,13,0],
  'R':[30,17,17,30,20,18,17,0],
  'S':[15,16,16,14,1,1,30,0],
  'T':[31,4,4,4,4,4,4,0],
  'U':[17,17,17,17,17,17,14,0],
  'V':[17,17,17,17,17,10,4,0],
  'W':[17,17,17,21,21,27,17,0],
  'X':[17,17,10,4,10,17,17,0],
  'Y':[17,17,10,4,4,4,4,0],
  'Z':[31,1,2,4,8,16,31,0],
  'a':[0,0,14,1,15,17,15,0],
  'b':[16,16,22,25,17,17,30,0],
  'c':[0,0,14,16,16,17,14,0],
  'd':[1,1,13,19,17,17,15,0],
  'e':[0,0,14,17,31,16,14,0],
  'f':[6,8,8,28,8,8,8,0],
  'g':[0,0,15,17,15,1,14,0],
  'h':[16,16,22,25,17,17,17,0],
  'i':[4,0,12,4,4,4,14,0],
  'j':[2,0,6,2,2,18,12,0],
  'k':[16,16,18,20,24,20,18,0],  // fixed 'k'
  'l':[12,4,4,4,4,4,14,0],
  'm':[0,0,26,21,21,17,17,0],
  'n':[0,0,22,25,17,17,17,0],
  'o':[0,0,14,17,17,17,14,0],
  'p':[0,0,30,17,30,16,16,0],
  'q':[0,0,13,19,15,1,1,0],
  'r':[0,0,22,25,16,16,16,0],
  's':[0,0,14,16,14,1,30,0],
  't':[8,8,28,8,8,9,6,0],
  'u':[0,0,17,17,17,19,13,0],
  'v':[0,0,17,17,17,10,4,0],
  'w':[0,0,17,17,21,21,10,0],
  'x':[0,0,17,10,4,10,17,0],
  'y':[0,0,17,17,15,1,14,0],
  'z':[0,0,31,2,4,8,31,0],
};

var X_POSITIONS = [27.79,38.534,49.278,60.022,70.768,81.512,92.256,103.0,113.744,124.489,135.233,145.977,156.721,167.465,178.209,188.954];
var ROW_Y = [34.154, 51.37];
var CELL_W = 10.027;
var CELL_H = 16.522;
var COLS = 5; var ROWS = 8;
var PAD_X = 0.8; var PAD_Y = 0.8; var GAP = 0.15;
var PX_W = (CELL_W - 2*PAD_X - GAP*(COLS-1)) / COLS;
var PX_H = (CELL_H - 2*PAD_Y - GAP*(ROWS-1)) / ROWS;

var ns = "http://www.w3.org/2000/svg";

function renderLCD() {
  var g = document.getElementById("lcd-pixels");
  while (g.firstChild) g.removeChild(g.firstChild);

  var texts = [TEXT_ROW1, TEXT_ROW2];

  for (var rowIdx = 0; rowIdx < 2; rowIdx++) {
    var text = (texts[rowIdx] || "").slice(0, 16);
    var cy = ROW_Y[rowIdx];

    for (var colIdx = 0; colIdx < 16; colIdx++) {
      var cx = X_POSITIONS[colIdx];
      var ch = text[colIdx] || ' ';
      var fontBits = FONT5X8[ch] || FONT5X8[' '];

      // cell bg
      var bg = document.createElementNS(ns, "rect");
      bg.setAttribute("x", cx); bg.setAttribute("y", cy);
      bg.setAttribute("width", CELL_W); bg.setAttribute("height", CELL_H);
      bg.setAttribute("fill", "#1A1A1A"); bg.setAttribute("fill-opacity", "0.08");
      g.appendChild(bg);

      for (var py = 0; py < ROWS; py++) {
        for (var px = 0; px < COLS; px++) {
          var bit = (fontBits[py] >> (4 - px)) & 1;
          var rect = document.createElementNS(ns, "rect");
          var rx = cx + PAD_X + px*(PX_W+GAP);
          var ry = cy + PAD_Y + py*(PX_H+GAP);
          rect.setAttribute("x", rx.toFixed(3));
          rect.setAttribute("y", ry.toFixed(3));
          rect.setAttribute("width", PX_W.toFixed(3));
          rect.setAttribute("height", PX_H.toFixed(3));
          rect.setAttribute("rx", "0.1");
          rect.setAttribute("fill", "#1A1A1A");
          rect.setAttribute("fill-opacity", bit ? "0.82" : "0.12");
          g.appendChild(rect);
        }
      }
    }
  }
}

// Run after SVG is loaded
if (document.readyState === "loading") {
  document.addEventListener("DOMContentLoaded", renderLCD);
} else {
  renderLCD();
}
  ]]></script>
</svg>
